# File produced by Open Asset Import Library (http://www.assimp.sf.net)
# (assimp v3.1.206520482)

mtllib ArenaBarrier.mtl

# 8 vertex positions
v -0.025 0.996034 -0.1
v -0.025 0.996034 0.1
v -0.025 1.09603 0.1
v -0.025 1.09603 -0.1
v 0.025 0.996034 -0.1
v 0.025 1.09603 -0.1
v 0.025 0.996034 0.1
v 0.025 1.09603 0.1

# 14 UV coordinates
vt 0.49798 0.46608 0
vt 0.18944 0.18755 0
vt 0.32628 0.03079 0
vt 0.64208 0.31362 0
vt 0.56833 0.54431 0
vt 0.71865 0.38672 0
vt 0.22779 0.79677 0
vt 0.6846 0.72555 0
vt 0.34779 0.96225 0
vt 0.16049 0.71704 0
vt 0.06919 0.9343 0
vt 0.00195 0.85461 0
vt 0.99804 0.069 0
vt 0.91814 0.00195 0

# 8 vertex normals
vn -0.872872 -0.436436 -0.218218
vn -0.872872 -0.436436 0.218218
vn -0.872872 0.436436 0.218218
vn -0.872872 0.436436 -0.218218
vn 0.872872 -0.436436 -0.218218
vn 0.872872 0.436436 -0.218218
vn 0.872872 -0.436436 0.218218
vn 0.872872 0.436436 0.218218

# Mesh 'g ZBrush_defualt_group_ZBrush_defualt_group' with 12 faces
g g ZBrush_defualt_group_ZBrush_defualt_group
usemtl defaultMat
f 1/1/1 2/2/2 3/3/3
f 3/3/3 4/4/4 1/1/1
f 5/5/5 1/1/1 4/4/4
f 4/4/4 6/6/6 5/5/5
f 7/7/7 5/5/5 6/8/6
f 6/8/6 8/9/8 7/7/7
f 2/10/2 7/7/7 8/11/8
f 8/11/8 3/12/3 2/10/2
f 2/10/2 1/1/1 5/5/5
f 5/5/5 7/7/7 2/10/2
f 8/13/8 6/6/6 4/4/4
f 4/4/4 3/14/3 8/13/8

