# Blender v2.82 (sub 7) OBJ File: 'EnvAssets.blend'
# www.blender.org
mtllib ArenaBarrier.mtl
o ArenaBarrier
v -0.075000 0.896038 -0.300000
v -0.075000 0.896038 0.300000
v -0.075000 1.196026 0.300000
v -0.075000 1.196026 -0.300000
v 0.075000 0.896038 -0.300000
v 0.075000 1.196026 -0.300000
v 0.075000 0.896038 0.300000
v 0.075000 1.196026 0.300000
vt 0.497980 0.466080
vt 0.189440 0.187550
vt 0.326280 0.030790
vt 0.642080 0.313620
vt 0.568330 0.544310
vt 0.718650 0.386720
vt 0.227790 0.796770
vt 0.684600 0.725550
vt 0.347790 0.962250
vt 0.160490 0.717040
vt 0.069190 0.934300
vt 0.001950 0.854610
vt 0.998040 0.069000
vt 0.918140 0.001950
vn -0.8729 -0.4365 -0.2182
vn -0.8729 -0.4364 0.2182
vn -0.8729 0.4364 0.2183
vn -0.8729 0.4364 -0.2182
vn 0.8729 -0.4365 -0.2182
vn 0.8729 0.4364 -0.2182
vn 0.8729 -0.4365 0.2182
vn 0.8729 0.4364 0.2182
usemtl defaultMat.001
s 1
f 1/1/1 2/2/2 3/3/3
f 3/3/3 4/4/4 1/1/1
f 5/5/5 1/1/1 4/4/4
f 4/4/4 6/6/6 5/5/5
f 7/7/7 5/5/5 6/8/6
f 6/8/6 8/9/8 7/7/7
f 2/10/2 7/7/7 8/11/8
f 8/11/8 3/12/3 2/10/2
f 2/10/2 1/1/1 5/5/5
f 5/5/5 7/7/7 2/10/2
f 8/13/8 6/6/6 4/4/4
f 4/4/4 3/14/3 8/13/8
